<svg width="1440" height="626" viewBox="0 0 1440 626" fill="none" xmlns="http://www.w3.org/2000/svg">
<path d="M0 626H1440V73.9915C1440 32.8245 1399.49 3.88507 1360.55 17.2328L1318.36 31.6913C1280.53 44.6568 1239.47 44.6568 1201.64 31.6913L1138.36 10.0035C1100.53 -2.96191 1059.47 -2.96191 1021.64 10.0035L958.362 31.6913C920.534 44.6568 879.466 44.6568 841.638 31.6913L778.362 10.0035C740.534 -2.96191 699.466 -2.96191 661.638 10.0035L598.362 31.6913C560.534 44.6568 519.466 44.6568 481.638 31.6913L418.362 10.0035C380.534 -2.96191 339.466 -2.96191 301.638 10.0035L238.362 31.6913C200.534 44.6568 159.466 44.6568 121.638 31.6913L79.454 17.2328C40.511 3.88513 0 32.8245 0 73.9915V626Z" fill="url(#paint0_linear)"/>
<defs>
<linearGradient id="paint0_linear" x1="720" y1="626" x2="720" y2="-27.4246" gradientUnits="userSpaceOnUse">
<stop stop-color="#E8F2FA"/>
<stop offset="1" stop-color="#CFDCE6"/>
</linearGradient>
</defs>
</svg>
