<svg width="170" height="165" viewBox="0 0 170 165" fill="none" xmlns="http://www.w3.org/2000/svg">
<g filter="url(#filter0_d)">
<path d="M128.562 98.8317C126.417 96.9332 123.421 98.0249 122.436 98.3808C119.245 99.5391 110.171 103.221 110.171 103.221C109.724 103.401 109.367 103.75 109.178 104.193C108.989 104.636 108.984 105.136 109.163 105.582C109.343 106.029 109.693 106.386 110.136 106.575C110.578 106.764 111.078 106.769 111.525 106.59L114.422 105.416C117.433 104.192 120.548 102.928 123.675 101.792C125.377 101.178 125.962 101.377 126.157 101.55C126.276 101.682 126.35 101.848 126.369 102.025C126.389 102.201 126.353 102.38 126.266 102.535C126.103 102.777 125.892 102.982 125.646 103.139C119.358 106.612 96.9804 118.92 96.9804 118.92C93.4267 120.878 89.3831 121.187 84.2599 119.901C80.0526 118.842 55.8956 111.765 55.8956 111.765C55.8956 111.765 55.8389 115.6 55.8445 115.624C55.8034 115.638 52.9161 115.764 51.9101 115.746C47.6766 109.079 45.2762 101.707 44.0222 91.4309C46.7855 91.3472 55.1682 91.1501 55.2433 91.1643C55.2568 91.2281 55.3568 94.7031 55.3568 94.7031L57.1616 94.6663C58.3923 94.6407 59.6201 94.5954 60.8465 94.55C66.356 94.3458 71.565 94.1516 76.6485 95.7863C78.131 96.2926 79.5671 96.9259 80.9408 97.6791C83.0408 98.8915 85.3361 99.7287 87.7235 100.153C91.746 100.812 95.8143 101.153 99.8903 101.171C100.21 101.148 100.531 101.193 100.832 101.303C101.134 101.413 101.408 101.585 101.638 101.808C101.835 102.008 101.988 102.246 102.089 102.508C102.189 102.769 102.234 103.049 102.222 103.329C102.232 103.608 102.186 103.886 102.086 104.146C101.986 104.406 101.835 104.644 101.641 104.844C101.447 105.045 101.214 105.204 100.957 105.312C100.7 105.42 100.424 105.475 100.145 105.474C97.9147 105.583 81.3967 105.96 81.3967 105.96C81.1584 105.967 80.9236 106.02 80.7058 106.116C80.4879 106.213 80.2913 106.352 80.1272 106.525C79.963 106.698 79.8345 106.901 79.749 107.124C79.6634 107.346 79.6226 107.584 79.6287 107.822C79.6528 108.299 79.8593 108.748 80.2056 109.078C80.5518 109.407 81.0112 109.59 81.4889 109.59C81.4889 109.59 92.5441 109.318 93.4926 109.299C95.7278 109.255 98.0388 109.21 100.321 109.098C101.439 109.044 102.518 108.668 103.427 108.016C104.337 107.364 105.039 106.463 105.449 105.422C105.859 104.38 105.959 103.243 105.738 102.145C105.517 101.048 104.983 100.038 104.202 99.2371C103.023 98.1163 101.448 97.5068 99.8216 97.5414C95.9543 97.5311 92.0943 97.2049 88.2801 96.566C86.2795 96.1985 84.3586 95.4835 82.6047 94.4534C81.0536 93.6081 79.4328 92.8975 77.7601 92.3296C72.0683 90.5021 66.295 90.7161 60.7111 90.9217C60.1015 90.9444 59.4911 90.9666 58.88 90.9884C58.8575 90.4837 58.731 89.9892 58.5084 89.5358C58.2857 89.0823 57.9718 88.6798 57.5863 88.3534C57.2008 88.027 56.752 87.7838 56.2681 87.639C55.7842 87.4942 55.2755 87.4509 54.7741 87.5119C51.3693 87.5899 40 88.0252 40 88.0252L40.1935 89.874C41.4547 101.911 44.0946 110.311 49.0214 117.965C49.3021 118.374 49.673 118.714 50.1057 118.957C50.5383 119.2 51.0211 119.341 51.5167 119.368C52.7389 119.398 53.9561 119.356 55.1307 119.313L55.6843 119.293C56.5184 119.322 57.3372 119.064 58.0038 118.562C58.6704 118.06 59.1444 117.344 59.3465 116.534C60.0909 116.752 79.0971 122.344 83.3745 123.42C85.5107 123.981 87.7079 124.275 89.9162 124.297C92.9947 124.335 96.031 123.578 98.7314 122.099C98.7314 122.099 121.111 109.791 127.403 106.315C128.129 105.894 128.753 105.319 129.231 104.629C129.831 103.742 130.093 102.67 129.971 101.606C129.848 100.543 129.348 99.5586 128.562 98.8317Z" fill="#15284A"/>
<path d="M89.5675 59.2028C90.8947 59.2028 91.9706 58.1269 91.9706 56.7997C91.9706 55.4725 90.8947 54.3966 89.5675 54.3966C88.2403 54.3966 87.1644 55.4725 87.1644 56.7997C87.1644 58.1269 88.2403 59.2028 89.5675 59.2028Z" fill="#15284A"/>
<path d="M106.797 59.2028C108.124 59.2028 109.2 58.1269 109.2 56.7997C109.2 55.4725 108.124 54.3966 106.797 54.3966C105.469 54.3966 104.393 55.4725 104.393 56.7997C104.393 58.1269 105.469 59.2028 106.797 59.2028Z" fill="#15284A"/>
<path d="M89.3102 69.4664C89.0613 69.8785 88.9863 70.3725 89.1016 70.8399C89.2168 71.3073 89.5129 71.7098 89.9248 71.9589C92.3743 73.5782 95.2458 74.4415 98.182 74.4415C101.118 74.4415 103.99 73.5782 106.439 71.9589C106.851 71.71 107.148 71.3075 107.263 70.8401C107.379 70.3727 107.303 69.8785 107.055 69.4664C106.806 69.0543 106.403 68.7579 105.936 68.6426C105.468 68.5272 104.974 68.6022 104.562 68.8511C102.676 70.1196 100.455 70.797 98.182 70.797C95.9092 70.797 93.6879 70.1196 91.8019 68.8511C91.3898 68.6025 90.8959 68.5277 90.4287 68.6431C89.9615 68.7585 89.5592 69.0546 89.3102 69.4664Z" fill="#15284A"/>
<path d="M81.3968 79.4192C85.7822 83.1903 90.5568 86.4836 95.6399 89.2431C96.3746 89.6605 97.2052 89.8794 98.0502 89.8783C98.9312 89.8693 99.7979 89.6542 100.581 89.2502C105.318 86.6663 109.787 83.6202 113.924 80.1565C117.607 77.2286 120.823 73.7579 123.463 69.8633C125.048 67.6446 126.169 65.1289 126.76 62.4667C127.35 59.8045 127.397 57.0506 126.899 54.3697C126.326 51.0228 124.836 47.9002 122.596 45.3483C121.038 43.6102 119.12 42.2321 116.975 41.3095C114.831 40.387 112.511 39.9422 110.177 40.006L109.549 40.0075C105.311 40.0382 101.247 41.6964 98.1976 44.6393C97.3548 43.8587 96.4358 43.1647 95.4542 42.5679C92.1201 40.619 88.2533 39.779 84.4111 40.169C82.2345 40.3553 80.1194 40.9868 78.1969 42.0243C76.2745 43.0618 74.5857 44.4832 73.2353 46.2003C70.4627 49.7699 69.0155 54.1914 69.1407 58.7095C69.3035 62.789 70.5972 66.743 72.8773 70.1298C75.2502 73.6241 78.1203 76.7535 81.3968 79.4192ZM76.0992 48.4291C77.1467 47.1069 78.4533 46.0127 79.939 45.2137C81.4246 44.4148 83.0579 43.9279 84.7385 43.783C85.2411 43.7433 85.7331 43.7249 86.2151 43.7249C88.8057 43.6802 91.3577 44.3571 93.5855 45.68C94.8216 46.4466 95.9365 47.3932 96.8932 48.4887L98.3295 50.1191L99.6778 48.4149C100.863 46.9185 102.373 45.7109 104.093 44.883C105.813 44.0551 107.699 43.6285 109.608 43.6355H110.177C112.008 43.5811 113.829 43.9262 115.513 44.6468C117.197 45.3674 118.703 46.4461 119.928 47.808C121.707 49.8691 122.886 52.3784 123.337 55.0629C123.738 57.2772 123.688 59.5494 123.192 61.7442C122.697 63.939 121.764 66.0117 120.451 67.8387C118 71.4466 115.015 74.6611 111.598 77.3719C107.656 80.672 103.398 83.576 98.8866 86.0417C98.6658 86.1701 98.4163 86.2411 98.161 86.2483C97.9057 86.2555 97.6526 86.1986 97.4249 86.0828C92.5539 83.452 87.9817 80.3023 83.7878 76.6885L83.7581 76.6616C80.7461 74.219 78.1053 71.3516 75.9184 68.1492C74.0013 65.3107 72.9104 61.9956 72.7673 58.5734C72.674 54.9088 73.8512 51.3247 76.0992 48.4291Z" fill="#15284A"/>
</g>
<defs>
<filter id="filter0_d" x="0" y="0" width="170" height="164.298" filterUnits="userSpaceOnUse" color-interpolation-filters="sRGB">
<feFlood flood-opacity="0" result="BackgroundImageFix"/>
<feColorMatrix in="SourceAlpha" type="matrix" values="0 0 0 0 0 0 0 0 0 0 0 0 0 0 0 0 0 0 127 0"/>
<feOffset/>
<feGaussianBlur stdDeviation="20"/>
<feColorMatrix type="matrix" values="0 0 0 0 0 0 0 0 0 0 0 0 0 0 0 0 0 0 0.1 0"/>
<feBlend mode="normal" in2="BackgroundImageFix" result="effect1_dropShadow"/>
<feBlend mode="normal" in="SourceGraphic" in2="effect1_dropShadow" result="shape"/>
</filter>
</defs>
</svg>
