<svg width="1440" height="720" preserveAspectRatio="none"  fill="none" xmlns="http://www.w3.org/2000/svg">
<path d="M0 0H1440V646.009C1440 687.176 1399.49 716.115 1360.55 702.767L1318.36 688.309C1280.53 675.343 1239.47 675.343 1201.64 688.309L1138.36 709.996C1100.53 722.962 1059.47 722.962 1021.64 709.996L958.362 688.309C920.534 675.343 879.466 675.343 841.638 688.309L778.362 709.996C740.534 722.962 699.466 722.962 661.638 709.996L598.362 688.309C560.534 675.343 519.466 675.343 481.638 688.309L418.362 709.996C380.534 722.962 339.466 722.962 301.638 709.996L238.362 688.309C200.534 675.343 159.466 675.343 121.638 688.309L79.454 702.767C40.511 716.115 0 687.176 0 646.009V0Z" fill="url(#paint0_linear)"/>
<defs>
<linearGradient id="paint0_linear" x1="720" y1="0" x2="720" y2="750" gradientUnits="userSpaceOnUse">
<stop stop-color="#E8F2FA"/>
<stop offset="1" stop-color="#CFDCE6"/>
</linearGradient>
</defs>
</svg>
