<?xml version="1.0" standalone="no"?>
<!DOCTYPE svg PUBLIC "-//W3C//DTD SVG 1.1//EN" "http://www.w3.org/Graphics/SVG/1.1/DTD/svg11.dtd" >
<svg xmlns="http://www.w3.org/2000/svg">
<metadata>Generated by IcoMoon</metadata>
<defs>
<font id="icomoon" horiz-adv-x="1024">
<font-face units-per-em="1024" ascent="960" descent="-64" />
<missing-glyph horiz-adv-x="1024" />
<glyph unicode="&#x20;" horiz-adv-x="512" d="" />
<glyph unicode="&#xe900;" glyph-name="bars" d="M128 192h768v85.333h-768v-85.333zM128 405.333h768v85.333h-768v-85.333zM128 704v-85.333h768v85.333h-768z" />
<glyph unicode="&#xe901;" glyph-name="cart" d="M663.467 405.333c32 0 60.16 17.493 74.667 43.947l152.747 276.907c15.787 28.16-4.693 63.147-37.12 63.147h-631.467l-40.107 85.333h-139.52v-85.333h85.333l153.6-323.84-57.6-104.107c-31.147-57.173 9.813-126.72 74.667-126.72h512v85.333h-512l46.933 85.333h317.867zM262.827 704h518.4l-117.76-213.333h-299.52l-101.12 213.333zM298.667 192c-46.933 0-84.907-38.4-84.907-85.333s37.973-85.333 84.907-85.333c46.933 0 85.333 38.4 85.333 85.333s-38.4 85.333-85.333 85.333zM725.333 192c-46.933 0-84.907-38.4-84.907-85.333s37.973-85.333 84.907-85.333c46.933 0 85.333 38.4 85.333 85.333s-38.4 85.333-85.333 85.333z" />
<glyph unicode="&#xe902;" glyph-name="ding" d="M512 21.333c46.933 0 85.333 38.4 85.333 85.333h-170.667c0-46.933 38.4-85.333 85.333-85.333zM768 277.333v213.333c0 130.987-69.547 240.64-192 269.653v29.013c0 35.413-28.587 64-64 64s-64-28.587-64-64v-29.013c-122.027-29.013-192-138.24-192-269.653v-213.333l-85.333-85.333v-42.667h682.667v42.667l-85.333 85.333zM682.667 234.667h-341.333v256c0 105.813 64.427 192 170.667 192s170.667-86.187 170.667-192v-256z" />
<glyph unicode="&#xe903;" glyph-name="eye" d="M512.006 768c-213.334 0-395.521-132.694-469.334-320 73.813-187.306 256-320 469.334-320 213.331 0 395.52 132.694 469.331 320-73.811 187.306-256 320-469.331 320zM512.006 234.666c-117.76 0-213.334 95.574-213.334 213.334s95.574 213.333 213.334 213.333c117.76 0 213.331-95.573 213.331-213.333s-95.571-213.334-213.331-213.334zM512.006 576c-70.829 0-128-57.174-128-128s57.171-128 128-128c70.826 0 128 57.174 128 128s-57.174 128-128 128z" />
<glyph unicode="&#xe904;" glyph-name="facebook" d="M967.45 960h-910.932c-31.193 0-56.518-25.275-56.518-56.518v-910.932c0-31.241 25.325-56.55 56.518-56.55h490.417v396.553h-133.437v154.564h133.437v113.981c0 132.241 80.747 204.288 198.741 204.288 56.567 0 105.075-4.232 119.223-6.070v-138.226l-81.843-0.034c-64.158 0-76.531-30.502-76.531-75.234v-98.653h153.062l-20.015-154.547h-133.065v-396.57h260.924c31.223 0 56.567 25.34 56.567 56.499v910.965c-0.017 31.21-25.327 56.484-56.55 56.484z" />
<glyph unicode="&#xe905;" glyph-name="hand-with-heart" d="M1007.643 262.182c-24.414 21.601-58.5 9.178-69.704 5.13-36.311-13.179-139.552-55.073-139.552-55.073-5.082-2.042-9.145-6.021-11.295-11.059s-2.21-10.725-0.166-15.807c2.042-5.082 6.021-9.145 11.059-11.295s10.725-2.21 15.807-0.167l32.965 13.358c34.263 13.921 69.696 28.31 105.281 41.231 19.358 6.986 26.012 4.727 28.239 2.759 1.347-1.508 2.191-3.397 2.414-5.407s-0.188-4.039-1.173-5.805c-1.855-2.751-4.258-5.090-7.058-6.871-71.542-39.522-326.151-179.558-326.151-179.558-40.433-22.277-86.44-25.793-144.731-11.163-47.87 12.050-322.723 92.578-322.723 92.578s-0.645-43.635-0.581-43.909c-0.468-0.162-33.319-1.597-44.765-1.388-48.168 75.85-75.478 159.733-89.747 276.652 31.44 0.952 126.817 3.194 127.671 3.033 0.154-0.726 1.291-40.264 1.291-40.264l20.535 0.419c14.003 0.29 27.972 0.807 41.926 1.323 62.686 2.322 121.953 4.533 179.792-14.066 16.868-5.762 33.207-12.966 48.837-21.536 23.893-13.796 50.009-23.321 77.172-28.149 45.767-7.499 92.055-11.372 138.431-11.583 3.639 0.259 7.291-0.251 10.718-1.5s6.552-3.205 9.173-5.744c2.236-2.274 3.979-4.986 5.121-7.963s1.658-6.159 1.517-9.346c0.117-3.171-0.408-6.333-1.545-9.296s-2.86-5.666-5.068-7.946c-2.207-2.279-4.854-4.089-7.778-5.32s-6.069-1.859-9.242-1.844c-25.374-1.242-213.312-5.534-213.312-5.534-2.711-0.069-5.383-0.672-7.861-1.775s-4.716-2.682-6.583-4.648c-1.868-1.967-3.33-4.283-4.303-6.814-0.974-2.532-1.438-5.23-1.369-7.942 0.274-5.427 2.624-10.543 6.564-14.286s9.166-5.831 14.601-5.83c0 0 125.784 3.097 136.575 3.308 25.432 0.499 51.726 1.016 77.697 2.29 12.719 0.613 24.991 4.887 35.339 12.306 10.349 7.421 18.335 17.671 22.998 29.521s5.805 24.793 3.288 37.276c-2.516 12.483-8.583 23.973-17.474 33.091-13.418 12.752-31.331 19.687-49.838 19.293-44.001 0.116-87.92 3.829-131.317 11.098-22.762 4.181-44.618 12.315-64.573 24.036-17.648 9.619-36.089 17.703-55.121 24.165-64.76 20.793-130.447 18.357-193.98 16.019-6.936-0.258-13.881-0.511-20.834-0.759-0.256 5.742-1.695 11.369-4.228 16.527s-6.105 9.739-10.491 13.453-9.492 6.481-14.998 8.128c-5.506 1.648-11.294 2.14-16.998 1.445-38.739-0.886-168.096-5.839-168.096-5.839l2.202-21.035c14.349-136.954 44.385-232.533 100.442-319.61 3.193-4.659 7.414-8.522 12.337-11.29 4.922-2.769 10.415-4.37 16.054-4.681 13.906-0.338 27.755 0.146 41.119 0.629l6.299 0.226c9.49-0.331 18.806 2.606 26.391 8.319s12.977 13.859 15.277 23.072c8.47-2.484 224.718-66.107 273.385-78.35 24.305-6.376 49.304-9.725 74.43-9.969 35.026-0.432 69.573 8.181 100.297 25.004 0 0 254.632 140.035 326.216 179.59 8.261 4.783 15.365 11.332 20.801 19.18 6.826 10.089 9.81 22.289 8.415 34.389s-7.079 23.301-16.021 31.571zM563.967 713.070c15.101 0 27.342 12.241 27.342 27.342s-12.241 27.342-27.342 27.342c-15.101 0-27.342-12.241-27.342-27.342s12.241-27.342 27.342-27.342zM759.996 713.070c15.101 0 27.342 12.241 27.342 27.342s-12.241 27.342-27.342 27.342c-15.101 0-27.342-12.241-27.342-27.342s12.241-27.342 27.342-27.342zM561.042 596.293c-2.832-4.689-3.685-10.309-2.375-15.627 1.312-5.318 4.681-9.898 9.367-12.732 27.87-18.424 60.54-28.246 93.949-28.246s66.080 9.822 93.95 28.246c4.689 2.832 8.060 7.411 9.373 12.729s0.46 10.94-2.373 15.63c-2.832 4.689-7.41 8.060-12.729 9.373-5.318 1.313-10.94 0.46-15.629-2.372-21.458-14.433-46.732-22.141-72.591-22.141-25.861 0-51.133 7.708-72.591 22.141-4.689 2.829-10.308 3.68-15.624 2.367s-9.893-4.682-12.726-9.367zM471.002 483.053c49.895-42.907 104.22-80.377 162.055-111.774 8.358-4.749 17.81-7.24 27.424-7.227 10.024 0.102 19.885 2.55 28.794 7.146 53.894 29.399 104.748 64.057 151.821 103.466 41.9 33.313 78.492 72.802 108.524 117.114 18.037 25.244 30.796 53.867 37.514 84.157s7.256 61.623 1.58 92.126c-6.522 38.080-23.466 73.608-48.951 102.644-17.733 19.775-39.557 35.455-63.958 45.951s-50.793 15.557-77.345 14.831l-7.146-0.017c-48.218-0.349-94.457-19.217-129.156-52.7-9.588 8.882-20.045 16.778-31.213 23.568-37.935 22.174-81.93 31.731-125.646 27.294-24.765-2.12-48.83-9.305-70.704-21.109-21.873-11.804-41.087-27.977-56.453-47.514-31.545-40.614-48.012-90.921-46.587-142.327 1.853-46.416 16.573-91.403 42.514-129.938 26.999-39.757 59.655-75.363 96.934-105.693zM410.728 835.651c11.917 15.044 26.784 27.493 43.688 36.584s35.486 14.63 54.608 16.279c5.718 0.452 11.316 0.661 16.8 0.661 29.475 0.509 58.511-7.193 83.859-22.245 14.064-8.721 26.748-19.492 37.634-31.956l16.341-18.551 15.342 19.39c13.487 17.025 30.665 30.766 50.236 40.185s41.027 14.273 62.747 14.193h6.476c20.83 0.619 41.546-3.308 60.706-11.506s36.302-20.472 50.237-35.968c20.234-23.45 33.651-52.001 38.789-82.544 4.555-25.194 3.995-51.046-1.648-76.018s-16.252-48.555-31.197-69.342c-27.885-41.050-61.847-77.624-100.725-108.467-44.853-37.548-93.296-70.589-144.625-98.643-2.512-1.461-5.351-2.269-8.256-2.351s-5.784 0.565-8.375 1.883c-55.421 29.933-107.443 65.769-155.16 106.886l-0.339 0.306c-34.269 27.791-64.315 60.416-89.197 96.852-21.812 32.296-34.224 70.014-35.853 108.951-1.062 41.695 12.332 82.474 37.91 115.42z" />
<glyph unicode="&#xe906;" glyph-name="heart" d="M512 49.067l-61.867 56.32c-219.733 199.253-364.8 330.667-364.8 491.947 0 131.413 103.253 234.667 234.667 234.667 74.24 0 145.493-34.56 192-89.173 46.507 54.613 117.76 89.173 192 89.173 131.413 0 234.667-103.253 234.667-234.667 0-161.28-145.067-292.693-364.8-492.373l-61.867-55.893z" />
<glyph unicode="&#xe907;" glyph-name="instagram" d="M746.812 960h-469.624c-152.844 0-277.187-124.344-277.187-277.187v-469.633c0-152.836 124.344-277.18 277.187-277.18h469.633c152.836 0 277.18 124.343 277.18 277.18v469.633c0 152.844-124.343 277.187-277.188 277.187v0zM512 168.009c-154.391 0-279.992 125.602-279.992 279.991 0 154.391 125.602 279.992 279.992 279.992s279.991-125.602 279.991-279.992c0-154.389-125.602-279.991-279.991-279.991zM798.686 661.961c-45.623 0-82.731 37.109-82.731 82.735s37.107 82.742 82.731 82.742c45.628 0 82.743-37.117 82.743-82.742s-37.116-82.735-82.743-82.735zM512 576c-70.575 0-128-57.421-128-128 0-70.575 57.425-128 128-128 70.579 0 128 57.425 128 128 0 70.579-57.421 128-128 128z" />
<glyph unicode="&#xe908;" glyph-name="lang" d="M511.573 874.667c-235.52 0-426.24-191.147-426.24-426.667s190.72-426.667 426.24-426.667c235.947 0 427.093 191.147 427.093 426.667s-191.147 426.667-427.093 426.667zM807.253 618.667h-125.867c-13.653 53.333-33.28 104.533-58.88 151.893 78.507-26.88 143.787-81.493 184.747-151.893zM512 787.627c35.413-51.2 63.147-107.947 81.493-168.96h-162.987c18.347 61.013 46.080 117.76 81.493 168.96zM181.76 362.667c-6.827 27.307-11.093 55.893-11.093 85.333s4.267 58.027 11.093 85.333h144.213c-3.413-28.16-5.973-56.32-5.973-85.333s2.56-57.173 5.973-85.333h-144.213zM216.747 277.333h125.867c13.653-53.333 33.28-104.533 58.88-151.893-78.507 26.88-143.787 81.067-184.747 151.893zM342.613 618.667h-125.867c40.96 70.827 106.24 125.013 184.747 151.893-25.6-47.36-45.227-98.56-58.88-151.893zM512 108.373c-35.413 51.2-63.147 107.947-81.493 168.96h162.987c-18.347-61.013-46.080-117.76-81.493-168.96zM611.84 362.667h-199.68c-3.84 28.16-6.827 56.32-6.827 85.333s2.987 57.6 6.827 85.333h199.68c3.84-27.733 6.827-56.32 6.827-85.333s-2.987-57.173-6.827-85.333zM622.507 125.44c25.6 47.36 45.227 98.56 58.88 151.893h125.867c-40.96-70.4-106.24-125.013-184.747-151.893zM698.027 362.667c3.413 28.16 5.973 56.32 5.973 85.333s-2.56 57.173-5.973 85.333h144.213c6.827-27.307 11.093-55.893 11.093-85.333s-4.267-58.027-11.093-85.333h-144.213z" />
<glyph unicode="&#xe909;" glyph-name="mail" d="M853.333 789.333h-682.667c-46.933 0-84.907-38.4-84.907-85.333l-0.427-512c0-46.933 38.4-85.333 85.333-85.333h682.667c46.933 0 85.333 38.4 85.333 85.333v512c0 46.933-38.4 85.333-85.333 85.333zM853.333 618.667l-341.333-213.333-341.333 213.333v85.333l341.333-213.333 341.333 213.333v-85.333z" />
<glyph unicode="&#xe90a;" glyph-name="map-pick" d="M512 874.667c-165.12 0-298.667-133.547-298.667-298.667 0-224 298.667-554.667 298.667-554.667s298.667 330.667 298.667 554.667c0 165.12-133.547 298.667-298.667 298.667zM512 469.333c-58.88 0-106.667 47.787-106.667 106.667s47.787 106.667 106.667 106.667c58.88 0 106.667-47.787 106.667-106.667s-47.787-106.667-106.667-106.667z" />
<glyph unicode="&#xe90b;" glyph-name="phone" d="M853.76 303.787c-52.48 0-103.253 8.533-150.613 23.893-14.933 5.12-31.573 1.28-43.093-10.24l-66.987-84.053c-120.747 57.6-233.813 166.4-293.973 291.413l83.2 70.827c11.52 11.947 14.933 28.587 10.24 43.52-15.787 47.36-23.893 98.133-23.893 150.613 0 23.040-19.2 42.24-42.24 42.24h-147.627c-23.040 0-50.773-10.24-50.773-42.24 0-396.373 329.813-725.76 725.76-725.76 30.293 0 42.24 26.88 42.24 50.347v147.2c0 23.040-19.2 42.24-42.24 42.24z" />
<glyph unicode="&#xe90c;" glyph-name="play" d="M426.667 256l256 192-256 192v-384zM512 874.667c-235.52 0-426.667-191.147-426.667-426.667s191.147-426.667 426.667-426.667c235.52 0 426.667 191.147 426.667 426.667s-191.147 426.667-426.667 426.667zM512 106.667c-188.16 0-341.333 153.173-341.333 341.333s153.173 341.333 341.333 341.333c188.16 0 341.333-153.173 341.333-341.333s-153.173-341.333-341.333-341.333z" />
<glyph unicode="&#xe90d;" glyph-name="search" d="M661.335 362.665h-33.71l-11.945 11.52c41.815 48.64 66.985 111.789 66.985 180.482 0 153.174-124.16 277.334-277.331 277.334-153.174 0-277.334-124.16-277.334-277.334 0-153.171 124.16-277.331 277.334-277.331 68.693 0 131.842 25.17 180.482 66.985l11.52-11.945v-33.71l213.33-212.905 63.575 63.575-212.905 213.33zM405.334 362.665c-106.24 0-192 85.762-192 192.002s85.76 192 192 192c106.24 0 192.002-85.76 192.002-192s-85.762-192.002-192.002-192.002z" />
<glyph unicode="&#xe90e;" glyph-name="share" d="M768 273.926c-32.426 0-61.44-12.8-83.626-32.854l-304.214 177.066c2.134 9.814 3.84 19.629 3.84 29.869s-1.706 20.051-3.84 29.866l300.8 175.36c23.040-21.334 53.334-34.56 87.040-34.56 70.826 0 128 57.173 128 128s-57.174 128-128 128c-70.826 0-128-57.173-128-128 0-10.24 1.706-20.053 3.84-29.867l-300.8-175.359c-23.040 21.331-53.333 34.56-87.040 34.56-70.827 0-128-57.174-128-128 0-70.829 57.173-128 128-128 33.707 0 64 13.226 87.040 34.56l303.786-177.494c-2.131-8.96-3.411-18.346-3.411-27.734 0-68.691 55.891-124.586 124.586-124.586s124.586 55.894 124.586 124.586c0 68.694-55.891 124.589-124.586 124.589z" />
<glyph unicode="&#xe90f;" glyph-name="star" d="M512.010 223.136l263.683-159.149-69.978 299.949 232.96 201.814-306.771 26.026-119.894 282.88-119.893-282.88-306.773-26.026 232.96-201.814-69.974-299.949 263.68 159.149z" />
<glyph unicode="&#xe910;" glyph-name="user" d="M512 704c46.933 0 85.333-38.4 85.333-85.333s-38.4-85.333-85.333-85.333c-46.933 0-85.333 38.4-85.333 85.333s38.4 85.333 85.333 85.333zM512 277.333c115.2 0 247.467-55.040 256-85.333h-512c9.813 30.72 141.227 85.333 256 85.333zM512 789.333c-94.293 0-170.667-76.373-170.667-170.667s76.373-170.667 170.667-170.667c94.293 0 170.667 76.373 170.667 170.667s-76.373 170.667-170.667 170.667zM512 362.667c-113.92 0-341.333-57.173-341.333-170.667v-85.333h682.667v85.333c0 113.493-227.413 170.667-341.333 170.667z" />
<glyph unicode="&#xe911;" glyph-name="user-fill" d="M512 448c94.293 0 170.667 76.373 170.667 170.667s-76.373 170.667-170.667 170.667c-94.293 0-170.667-76.373-170.667-170.667s76.373-170.667 170.667-170.667zM512 362.667c-113.92 0-341.333-57.173-341.333-170.667v-85.333h682.667v85.333c0 113.493-227.413 170.667-341.333 170.667z" />
<glyph unicode="&#xe912;" glyph-name="youtube" d="M1002.901 698.479c-11.797 43.869-46.387 78.45-90.249 90.263-80.132 21.925-400.666 21.925-400.666 21.925s-320.518 0-400.649-21.094c-43.019-11.8-78.45-47.231-90.25-91.094-21.088-80.125-21.088-246.294-21.088-246.294s0-167.005 21.088-246.292c11.813-43.866 46.388-78.447 90.256-90.257 80.969-21.931 400.656-21.931 400.656-21.931s320.521 0 400.653 21.090c43.87 11.81 78.451 46.391 90.261 90.253 21.082 80.132 21.082 246.293 21.082 246.293s0.845 167.013-21.094 247.138zM409.938 298.671v307.027l266.537-153.513-266.537-153.514z" />
<glyph unicode="&#xe913;" glyph-name="payment" horiz-adv-x="1396" d="M1132.614 323.877v496.485c0 68.267-55.855 124.121-124.123 124.121h-868.847c-68.266 0-124.121-55.854-124.121-124.121v-496.485c0-68.268 55.855-124.123 124.121-124.123h868.847c68.268 0 124.123 55.855 124.123 124.123zM574.068 385.936c-103.019 0-186.182 83.163-186.182 186.183s83.163 186.182 186.182 186.182c103.019 0 186.182-83.161 186.182-186.182s-83.163-186.183-186.182-186.183zM1380.855 758.301v-682.665c0-68.268-55.855-124.123-124.118-124.123h-1055.032v124.123h1055.032v682.665h124.118z" />
<glyph unicode="&#xe914;" glyph-name="delivery" horiz-adv-x="1396" d="M1194.673 696.24h-186.182v248.243h-868.847c-68.266 0-124.121-55.854-124.121-124.121v-682.666h124.121c0-103.019 83.161-186.182 186.182-186.182s186.184 83.163 186.184 186.182h372.364c0-103.019 83.158-186.182 186.182-186.182 103.019 0 186.182 83.163 186.182 186.182h124.118v310.305l-186.182 248.24zM325.826 44.605c-51.51 0-93.091 41.579-93.091 93.091s41.581 93.091 93.091 93.091c51.51 0 93.091-41.579 93.091-93.091s-41.58-93.091-93.091-93.091zM1163.646 603.149l121.637-155.149h-276.792v155.149h155.155zM1070.555 44.605c-51.512 0-93.091 41.579-93.091 93.091s41.579 93.091 93.091 93.091c51.507 0 93.091-41.579 93.091-93.091s-41.584-93.091-93.091-93.091z" />
<glyph unicode="&#xe915;" glyph-name="clock" horiz-adv-x="878" d="M585.143 960h-292.571v-97.524h292.571v97.524zM390.095 326.095h97.524v292.571h-97.524v-292.571zM781.653 648.411l69.242 69.242c-20.968 24.869-43.886 48.274-68.754 68.754l-69.242-69.242c-75.581 60.465-170.667 96.549-274.042 96.549-242.347 0-438.857-196.51-438.857-438.857s196.023-438.857 438.857-438.857c242.834 0 438.857 196.51 438.857 438.857 0 103.375-36.084 198.461-96.061 273.554zM438.857 33.524c-188.709 0-341.333 152.625-341.333 341.333s152.625 341.333 341.333 341.333c188.709 0 341.333-152.625 341.333-341.333s-152.625-341.333-341.333-341.333z" />
</font>
</defs>
</svg>
